<?xml version="1.0" standalone="no"?><!DOCTYPE svg PUBLIC "-//W3C//DTD SVG 1.1//EN" "http://www.w3.org/Graphics/SVG/1.1/DTD/svg11.dtd"><svg t="1545112636801" class="icon" style="" viewBox="0 0 1024 1024" version="1.1" xmlns="http://www.w3.org/2000/svg" p-id="11259" xmlns:xlink="http://www.w3.org/1999/xlink" width="48" height="48"><defs><style type="text/css"></style></defs><path d="M889.966842 15.132652h-755.936754c-37.770232 0-68.412113 30.639834-68.412113 68.410066v859.226213c0 37.769208 30.641881 68.411089 68.412113 68.411089h755.936754c37.817304 0 68.413136-30.642904 68.413136-68.411089V83.542718c0.002047-37.770232-30.596855-68.410066-68.413136-68.410066z m21.65009 922.959769c0 12.603039-10.201339 22.802332-22.805402 22.802332H133.495922c-12.606109 0-22.804379-10.200316-22.804379-22.802332V86.4837c0-12.606109 10.201339-22.803355 22.804379-22.803355h755.314584c12.607132 0 22.805402 10.19827 22.805402 22.803355v851.608721h0.001024zM444.123588 647.110187l-38.015825-77.051887-38.015825 77.051887-84.981487 12.33698 61.488423 59.951417-14.498202 84.669378 76.005044-39.995923 76.010161 39.995923-14.498202-84.669378 61.505819-59.951417-84.999906-12.33698zM268.814864 178.070628H746.382657v47.524387H268.814864v-47.524387z m0 141.2797H746.382657v47.523364H268.814864v-47.523364z m266.281669 157.483754c31.357172 17.547655 37.059034 29.928636 37.059034 29.928637h174.229136v-47.476291h-261.884522s19.243273 0 50.598398 17.547654h-0.002046z m-131.123387 6.191003c-116.294656 0-210.588229 94.246501-210.588229 210.585159 0 116.294656 94.293573 210.585159 210.588229 210.58516 116.314099 0 210.582089-94.290503 210.58209-210.58516 0-116.339682-94.266967-210.585159-210.58209-210.585159z m0 392.667148c-100.573603 0-182.080965-81.555457-182.080965-182.081989 0-100.570533 81.509409-182.077895 182.080965-182.077895 100.544951 0 182.076872 81.506339 182.076872 182.077895 0 100.525508-81.531921 182.081988-182.076872 182.081989z" p-id="11260"></path></svg>