<?xml version="1.0" standalone="no"?><!DOCTYPE svg PUBLIC "-//W3C//DTD SVG 1.1//EN" "http://www.w3.org/Graphics/SVG/1.1/DTD/svg11.dtd"><svg t="1545112628796" class="icon" style="" viewBox="0 0 1024 1024" version="1.1" xmlns="http://www.w3.org/2000/svg" p-id="11150" xmlns:xlink="http://www.w3.org/1999/xlink" width="48" height="48"><defs><style type="text/css"></style></defs><path d="M853.333333 437.418667A341.930667 341.930667 0 0 0 768 426.666667V170.666667a85.333333 85.333333 0 0 0-85.333333-85.333334H170.666667a85.333333 85.333333 0 0 0-85.333334 85.333334v682.666666a85.333333 85.333333 0 0 0 85.333334 85.333334h301.653333c18.602667 32.128 42.24 60.928 69.888 85.333333H170.666667a170.666667 170.666667 0 0 1-170.666667-170.666667V170.666667a170.666667 170.666667 0 0 1 170.666667-170.666667h512a170.666667 170.666667 0 0 1 170.666666 170.666667v266.752zM213.333333 256h426.666667a42.666667 42.666667 0 1 1 0 85.333333H213.333333a42.666667 42.666667 0 1 1 0-85.333333z m0 213.333333h256a42.666667 42.666667 0 1 1 0 85.333334H213.333333a42.666667 42.666667 0 1 1 0-85.333334z m0 213.333334h128a42.666667 42.666667 0 1 1 0 85.333333H213.333333a42.666667 42.666667 0 1 1 0-85.333333z m554.666667 341.333333a256 256 0 1 1 0-512 256 256 0 0 1 0 512z m0-85.333333a170.666667 170.666667 0 1 0 0-341.333334 170.666667 170.666667 0 0 0 0 341.333334z m0-106.666667l-36.992 19.456a21.333333 21.333333 0 0 1-30.933333-22.485333l7.04-41.173334-29.866667-29.184a21.333333 21.333333 0 0 1 11.776-36.394666l41.386667-5.973334 18.474666-37.504a21.333333 21.333333 0 0 1 38.229334 0l18.517333 37.461334 41.344 6.016a21.333333 21.333333 0 0 1 11.818667 36.394666l-29.909334 29.184 7.04 41.173334a21.333333 21.333333 0 0 1-30.933333 22.485333L768 832z" p-id="11151"></path></svg>