<?xml version="1.0" standalone="no"?><!DOCTYPE svg PUBLIC "-//W3C//DTD SVG 1.1//EN" "http://www.w3.org/Graphics/SVG/1.1/DTD/svg11.dtd"><svg t="1542851253933" class="icon" style="" viewBox="0 0 1024 1024" version="1.1" xmlns="http://www.w3.org/2000/svg" p-id="2504" xmlns:xlink="http://www.w3.org/1999/xlink" width="48" height="48"><defs><style type="text/css"></style></defs><path d="M595.2 883.2c-12.8-32-19.2-64-19.2-102.4 0-38.4 6.4-70.4 19.2-102.4 12.8-32 32-64 51.2-83.2 25.6-25.6 51.2-44.8 83.2-57.6s64-19.2 96-19.2V115.2c0-38.4-32-76.8-76.8-76.8H89.6C51.2 38.4 12.8 70.4 12.8 115.2V896c0 38.4 32 76.8 76.8 76.8h563.2c-25.6-32-44.8-64-57.6-89.6zM192 224h192c19.2 0 38.4 19.2 38.4 38.4s-19.2 38.4-38.4 38.4H192c-19.2 0-38.4-19.2-38.4-38.4s19.2-38.4 38.4-38.4zM192 448h441.6c19.2 0 38.4 19.2 38.4 38.4s-19.2 38.4-38.4 38.4H192c-19.2-12.8-38.4-25.6-38.4-51.2 0-12.8 19.2-25.6 38.4-25.6z m262.4 281.6H192c-19.2 0-38.4-19.2-38.4-38.4s19.2-38.4 38.4-38.4h262.4c19.2 0 38.4 19.2 38.4 38.4s-19.2 38.4-38.4 38.4z" fill="#070001" p-id="2505"></path><path d="M838.4 601.6c-96 0-172.8 83.2-172.8 172.8s83.2 172.8 172.8 172.8 172.8-83.2 172.8-172.8-83.2-172.8-172.8-172.8z m83.2 236.8c6.4 6.4 6.4 19.2 0 25.6-6.4 6.4-19.2 6.4-25.6 0l-64-64-64 64c-6.4 6.4-19.2 6.4-25.6 0-6.4-6.4-6.4-19.2 0-25.6l64-64-64-64c-6.4-6.4-6.4-19.2 0-25.6 6.4-6.4 19.2-6.4 25.6 0l64 64 64-64c6.4-6.4 19.2-6.4 25.6 0 6.4 6.4 6.4 19.2 0 25.6l-64 64 64 64z" fill="#070001" p-id="2506"></path></svg>