<?xml version="1.0" standalone="no"?><!DOCTYPE svg PUBLIC "-//W3C//DTD SVG 1.1//EN" "http://www.w3.org/Graphics/SVG/1.1/DTD/svg11.dtd"><svg t="1542851240941" class="icon" style="" viewBox="0 0 1024 1024" version="1.1" xmlns="http://www.w3.org/2000/svg" p-id="2329" xmlns:xlink="http://www.w3.org/1999/xlink" width="48" height="48"><defs><style type="text/css"></style></defs><path d="M486.104 853.333c23.564 0 42.667 19.103 42.667 42.667s-19.103 42.667-42.667 42.667h-272.77c-47.129 0-85.334-38.205-85.334-85.334V170.667c0-47.129 38.205-85.334 85.333-85.334H768c47.128 0 85.333 38.205 85.333 85.334v231.562c0 23.564-19.102 42.667-42.666 42.667-23.564 0-42.667-19.103-42.667-42.667V170.667H213.333v682.666h272.771z m266.38 76.8c-121.676 0-220.314-98.638-220.314-220.315 0-121.677 98.638-220.315 220.315-220.315 121.677 0 220.315 98.638 220.315 220.315 0 121.677-98.638 220.315-220.315 220.315z m0-68.266c83.975 0 152.05-68.075 152.05-152.049S836.458 557.77 752.483 557.77c-83.973 0-152.048 68.074-152.048 152.048s68.075 152.049 152.049 152.049z m28.861-154.393l46.807 43.648c8.617 8.036 9.088 21.535 1.053 30.152s-21.535 9.088-30.152 1.053l-46.806-43.648-43.648 46.806c-8.035 8.617-21.535 9.089-30.152 1.053-8.616-8.035-9.088-21.534-1.052-30.151l43.647-46.807-46.806-43.648c-8.617-8.035-9.088-21.534-1.053-30.151s21.535-9.089 30.151-1.053l46.807 43.648 43.648-46.807c8.035-8.617 21.535-9.088 30.151-1.053 8.617 8.036 9.089 21.535 1.053 30.152l-43.648 46.806zM334.051 441.477c-23.564 0-42.667-19.103-42.667-42.667s19.103-42.667 42.667-42.667h209.832c23.564 0 42.666 19.103 42.666 42.667s-19.102 42.667-42.666 42.667H334.05z m0 203.107c-23.564 0-42.667-19.102-42.667-42.667 0-23.564 19.103-42.666 42.667-42.666h112.94c23.563 0 42.666 19.102 42.666 42.666 0 23.565-19.103 42.667-42.667 42.667H334.05z" p-id="2330"></path></svg>