<?xml version="1.0" standalone="no"?><!DOCTYPE svg PUBLIC "-//W3C//DTD SVG 1.1//EN" "http://www.w3.org/Graphics/SVG/1.1/DTD/svg11.dtd"><svg t="1545112621449" class="icon" style="" viewBox="0 0 1024 1024" version="1.1" xmlns="http://www.w3.org/2000/svg" p-id="11041" xmlns:xlink="http://www.w3.org/1999/xlink" width="48" height="48"><defs><style type="text/css"></style></defs><path d="M921.84 283.68H100a100 100 0 0 0-100 100V909.6c0 53.16 44.72 97.84 100 97.84h824a100 100 0 0 0 100-100V383.72a103.2 103.2 0 0 0-102.16-100z m-225.64 185.24l-134.12 134.12h76.52a21.32 21.32 0 1 1 0 42.6h-106.32v64h106.48a21.32 21.32 0 1 1 0 42.6h-106.48v84.96a21.32 21.32 0 0 1-42.6 0V752H383.24a21.32 21.32 0 0 1 0-42.6h106.52v-64H383.24a21.32 21.32 0 0 1 0-42.6H460l-134.2-133.96a20.48 20.48 0 0 1 2.16-29.72 22.36 22.36 0 0 1 27.6 0l155.4 155.4 155.44-155.4a20.56 20.56 0 0 1 29.8 2.12 22.36 22.36 0 0 1 0 27.6zM187.28 16.56h645a38.2 38.2 0 0 1 38.36 38.36v6.32a38.2 38.2 0 0 1-38.36 38.32H187.36a35.16 35.16 0 0 1-38.32-36v-8.64a38.2 38.2 0 0 1 38.32-38.36z m-59.64 132h766.44a42.6 42.6 0 0 1 0 85.2H127.72a42.6 42.6 0 0 1 0-85.2z m0 0" fill="" p-id="11042"></path></svg>