<?xml version="1.0" standalone="no"?><!DOCTYPE svg PUBLIC "-//W3C//DTD SVG 1.1//EN" "http://www.w3.org/Graphics/SVG/1.1/DTD/svg11.dtd"><svg t="1545112613274" class="icon" style="" viewBox="0 0 1068 1024" version="1.1" xmlns="http://www.w3.org/2000/svg" p-id="10926" xmlns:xlink="http://www.w3.org/1999/xlink" width="50.0625" height="48"><defs><style type="text/css"></style></defs><path d="M937.316174 241.842087H131.205565A131.33913 131.33913 0 0 0 0 373.047652v496.773565a131.33913 131.33913 0 0 0 131.205565 131.205566h806.110609A131.33913 131.33913 0 0 0 1068.521739 869.821217V373.047652a131.33913 131.33913 0 0 0-131.205565-131.205565z m56.230956 627.97913c0 30.98713-25.243826 56.230957-56.230956 56.230957H131.205565a56.32 56.32 0 0 1-56.230956-56.230957V373.047652c0-31.031652 25.243826-56.230957 56.230956-56.230956h806.110609c30.98713 0 56.230957 25.199304 56.230956 56.230956v496.773565z m-284.805565-279.908174a29.384348 29.384348 0 0 0 0-58.768695h-109.968695l112.15026-112.105739a29.384348 29.384348 0 0 0-41.583304-41.583305l-133.476174 133.565218-133.565217-133.565218a29.384348 29.384348 0 1 0-41.538783 41.583305l112.105739 112.105739h-113.085217a29.384348 29.384348 0 0 0 0 58.768695h145.096348v64.734609H359.735652a29.384348 29.384348 0 0 0 0 58.768696h145.14087v138.418087a29.384348 29.384348 0 1 0 58.768695 0v-138.462609h145.051826a29.384348 29.384348 0 0 0 0-58.724174H563.645217V589.913043h145.14087zM134.722783 195.272348h799.031652a37.487304 37.487304 0 0 0 0-75.019131H134.722783a37.487304 37.487304 0 0 0 0 75.019131z m99.59513-120.297739h599.885913a37.487304 37.487304 0 0 0 0-74.974609H234.317913a37.487304 37.487304 0 0 0 0 74.974609z" p-id="10927"></path></svg>