<?xml version="1.0" standalone="no"?><!DOCTYPE svg PUBLIC "-//W3C//DTD SVG 1.1//EN" "http://www.w3.org/Graphics/SVG/1.1/DTD/svg11.dtd"><svg t="1545112523746" class="icon" style="" viewBox="0 0 1024 1024" version="1.1" xmlns="http://www.w3.org/2000/svg" p-id="10246" xmlns:xlink="http://www.w3.org/1999/xlink" width="48" height="48"><defs><style type="text/css"></style></defs><path d="M950.656 583.7824c-12.05248-4.03968-22.13376-10.05056-29.95712-17.85856-29.7984-29.80864-29.80864-78.29504-0.01536-108.0832 7.82848-7.83872 17.90464-13.84448 29.92128-17.85344 32.2304-10.72128 53.89312-40.73984 53.92384-74.71104l-0.0256-192.4608c0.00512-30.22848-11.776-58.65984-33.16736-80.05632-21.38112-21.38112-49.81248-33.16224-80.06144-33.16736L132.67968 59.59168c0 0-0.00512 0-0.01024 0-30.1824 0-58.58816 11.79136-80 33.19296-21.41184 21.41184-33.19808 49.82272-33.19808 80.01024L19.50208 365.568c-0.03584 21.0176 8.16128 40.80128 23.06048 55.70048 8.55552 8.56576 18.7392 14.90944 30.30016 18.8672 11.68896 3.95264 21.57056 9.91232 29.36832 17.70496 14.40768 14.41792 22.3488 33.60256 22.35904 54.0416s-7.92576 39.62368-22.32832 54.03648c-7.76192 7.7568-17.64864 13.70112-29.43488 17.67936-31.91296 10.9056-53.35552 40.87296-53.35552 74.56768l0.01024 193.00864c-0.01024 30.22336 11.77088 58.65984 33.16224 80.06144 21.4016 21.39136 49.78176 33.16736 80.06144 33.16736l758.6048 0.01024c62.4128 0 113.19808-50.78528 113.2032-113.21344l0-192.71168c0-21.03808-8.19712-40.82176-23.08608-55.71584C972.79488 594.14016 962.14016 587.5712 950.656 583.7824zM213.16096 511.89248c0-44.06272-17.16224-85.49376-48.32256-116.65408-15.81056-15.80032-34.90304-28.07296-56.84224-36.52608L107.99616 172.79488c0-13.60384 11.08992-24.68352 24.69888-24.704l758.58432 0.02048c6.62016 0 12.8256 2.56 17.47456 7.2192 4.67456 4.67456 7.23968 10.86976 7.21408 17.47968l0.03584 185.53856c-22.41536 8.42752-41.8816 20.8128-57.93792 36.87424-31.15008 31.15008-48.3072 72.576-48.30208 116.63872s17.17248 85.48864 48.32256 116.64896c16.08704 16.08192 35.5328 28.47232 57.88672 36.87936l-0.00512 185.79968c0 13.60896-11.05408 24.6784-24.66816 24.6784L132.7104 875.88864c-6.6304-0.00512-12.84608-2.57024-17.48992-7.22432-4.62848-4.6336-7.1936-10.84928-7.2192-17.46944L108.00128 665.0368c21.94432-8.43776 41.04704-20.70016 56.8576-36.51584C196.00896 597.376 213.16608 555.9552 213.16096 511.89248z" p-id="10247"></path><path d="M334.27968 394.38848l355.43552 0c28.31872 0 51.35872-23.04 51.35872-51.35872s-23.04-51.35872-51.35872-51.35872L334.27968 291.67104c-28.3136 0-51.3536 23.04-51.3536 51.35872S305.96608 394.38848 334.27968 394.38848z" p-id="10248"></path><path d="M334.27968 573.73184l355.43552 0c28.31872 0 51.35872-23.03488 51.35872-51.34848 0-28.31872-23.04-51.35872-51.35872-51.35872L334.27968 471.02464c-28.3136 0-51.3536 23.04-51.3536 51.35872C282.92608 550.69696 305.96608 573.73184 334.27968 573.73184z" p-id="10249"></path><path d="M334.27968 753.0752l355.43552 0c28.31872 0 51.35872-23.04 51.35872-51.35872s-23.04-51.3536-51.35872-51.3536L334.27968 650.36288c-28.3136 0-51.3536 23.03488-51.3536 51.3536S305.96608 753.0752 334.27968 753.0752z" p-id="10250"></path></svg>