<?xml version="1.0" standalone="no"?><!DOCTYPE svg PUBLIC "-//W3C//DTD SVG 1.1//EN" "http://www.w3.org/Graphics/SVG/1.1/DTD/svg11.dtd"><svg t="1545112681883" class="icon" style="" viewBox="0 0 1024 1024" version="1.1" xmlns="http://www.w3.org/2000/svg" p-id="2038" xmlns:xlink="http://www.w3.org/1999/xlink" width="48" height="48"><defs><style type="text/css"></style></defs><path d="M960 414V225.1c0-53.6-43.5-97.1-97.1-97.1h-15.4c-34.4 0-66.5 18.4-83.8 48.1-5.8 10-16.2 15.9-27.7 15.9s-21.9-6-27.7-15.9C691 146.4 658.9 128 624.5 128h-1c-34.4 0-66.5 18.4-83.8 48.1-5.8 10-16.2 15.9-27.7 15.9s-21.9-6-27.7-15.9C467 146.4 434.9 128 400.5 128s-66.5 18.4-83.8 48.1c-5.8 10-16.2 15.9-27.7 15.9s-21.9-6-27.7-15.9C244 146.4 211.9 128 177.5 128h-16.4c-53.6 0-97.1 43.5-97.1 97.1v573.8c0 53.6 43.5 97.1 97.1 97.1H481c17.7 0 32-14.3 32-32s-14.3-32-32-32H161.1c-18.3 0-33.1-14.8-33.1-33.1V225.1c0-18.3 14.8-33.1 33.1-33.1h16.4c11.7 0 22.6 6.2 28.5 16.3 16.6 28.5 47.6 47.7 83 47.7s66.3-19.2 83-47.7c5.9-10.1 16.8-16.3 28.5-16.3s22.6 6.2 28.5 16.3c16.6 28.5 47.6 47.7 83 47.7s66.3-19.2 83-47.7c5.9-10.1 16.8-16.3 28.5-16.3h1c11.7 0 22.6 6.2 28.5 16.3 16.6 28.5 47.6 47.7 83 47.7s66.3-19.2 83-47.7c5.9-10.1 16.8-16.3 28.5-16.3h15.4c18.3 0 33.1 14.8 33.1 33.1V414c0 17.7 14.3 32 32 32s32-14.3 32-32z" fill="" p-id="2039"></path><path d="M673 640h255c17.7 0 32-14.3 32-32s-14.3-32-32-32H673c-17.7 0-32 14.3-32 32s14.3 32 32 32zM673 768h255c17.7 0 32-14.3 32-32s-14.3-32-32-32H673c-17.7 0-32 14.3-32 32s14.3 32 32 32zM673 896h255c17.7 0 32-14.3 32-32s-14.3-32-32-32H673c-17.7 0-32 14.3-32 32s14.3 32 32 32z" fill="" p-id="2040"></path></svg>