<?xml version="1.0" standalone="no"?><!DOCTYPE svg PUBLIC "-//W3C//DTD SVG 1.1//EN" "http://www.w3.org/Graphics/SVG/1.1/DTD/svg11.dtd"><svg t="1542014356415" class="icon" style="" viewBox="0 0 1024 1024" version="1.1" xmlns="http://www.w3.org/2000/svg" p-id="8538" xmlns:xlink="http://www.w3.org/1999/xlink" width="48" height="48"><defs><style type="text/css"></style></defs><path d="M534.15956373 297.9098176c55.46377813 0 100.41862933-46.33009387 100.41862934-103.5064384a104.570304 104.570304 0 0 0-36.5606848-79.89378773 72.27805973 72.27805973 0 0 1 3.25646933 20.4599712c0 39.06466347-30.72239253 70.73415573-68.6064224 70.7341568s-68.61939733-31.6565184-68.61939733-70.7341568a71.62936107 71.62936107 0 0 1 2.08881173-16.5288544 104.59625173 104.59625173 0 0 0-32.43495787 75.96267093c0 57.17634347 44.9548512 103.5194112 100.41862934 103.51941227z m-3.1916-131.9713568c36.96287787 0 66.9198048-30.87808 66.9198048-68.9826688s-29.95692693-68.96969387-66.9198048-68.96969387-66.93277867 30.89105387-66.93277973 68.9177984 29.95692693 68.9826688 66.91980587 68.98266774zM58.1441216 784.52500267l161.72069973 64.58448853C206.81299413 822.14955413 154.644608 416.21956907 154.644608 416.21956907L58.1441216 784.52500267z m657.30090773 212.46194773l10.3791872-158.63289173-362.55795946 37.62455146 352.11390293 120.9953664z m109.5523136-873.83668587l-175.78449706 26.7393792a138.328608 138.328608 0 0 1 16.65859413 66.02460054c0 74.9896224-58.96675307 135.78570773-131.7248512 135.78570666s-131.6989024-60.79608533-131.6989024-135.78570666a141.208832 141.208832 0 0 1 3.06186027-28.95793067L188.55860053 219.949152c7.7843904 209.72443733 101.7290016 626.47472427 101.7290016 626.47472427l675.56827627-118.30975254c-46.9528448-48.40593067-140.85853547-604.96386027-140.85853547-604.9638592zM316.14475093 454.38902827l287.43859627-42.60656107 8.54985493 31.99384213-287.4256224 42.61953494-8.5628288-31.99384214z m61.71723734 242.52266666l-10.37918614-36.48284053 353.76159787-51.8959328 10.4570304 36.48284053-353.77457173 51.8959328z m-21.43301974-105.089264l-13.94703253-36.19741226L798.16714667 493.90778027l13.96000533 36.19741333-455.69818347 61.75616z" fill="#4DCBBD" p-id="8539"></path></svg>