<?xml version="1.0" standalone="no"?><!DOCTYPE svg PUBLIC "-//W3C//DTD SVG 1.1//EN" "http://www.w3.org/Graphics/SVG/1.1/DTD/svg11.dtd"><svg t="1542014378064" class="icon" style="" viewBox="0 0 1024 1024" version="1.1" xmlns="http://www.w3.org/2000/svg" p-id="8756" xmlns:xlink="http://www.w3.org/1999/xlink" width="48" height="48"><defs><style type="text/css"></style></defs><path d="M929.792 69.632h-822.784c-29.696 0-52.736 17.92-52.736 47.104v677.888c0 23.552 23.04 47.104 46.592 47.104h329.728l-8.192 58.368H358.4c-23.04 0-40.96 29.696-40.96 53.248h391.168c5.632-17.92-11.776-53.248-35.328-53.248H609.28l-9.728-58.368h329.728c23.04 0 46.592-23.552 46.592-47.104V117.248c0.512-30.208-22.528-47.616-46.08-47.616z m-36.864 635.904h-749.056V180.736h749.056v524.8zM343.04 395.776c16.384 0 31.744-6.144 42.496-17.92 10.752-11.776 17.92-27.648 17.92-43.52 0-16.384-6.144-32.256-17.92-44.032s-27.136-17.92-42.496-17.92c-16.384 0-31.744 6.144-42.496 17.92-10.752 11.776-17.92 27.648-17.92 44.032 0 16.384 6.144 32.256 17.92 43.52 10.752 11.264 26.112 17.92 42.496 17.92z m434.688 79.36h-221.696V629.76h221.696v-154.624z m-11.264-218.112h-221.696v154.112h221.696v-154.112z m-296.448 218.112h-221.696V629.76h221.696v-154.624z" fill="" p-id="8757"></path></svg>