<?xml version="1.0" standalone="no"?><!DOCTYPE svg PUBLIC "-//W3C//DTD SVG 1.1//EN" "http://www.w3.org/Graphics/SVG/1.1/DTD/svg11.dtd"><svg t="1542014405670" class="icon" style="" viewBox="0 0 1024 1024" version="1.1" xmlns="http://www.w3.org/2000/svg" p-id="9250" xmlns:xlink="http://www.w3.org/1999/xlink" width="48" height="48"><defs><style type="text/css"></style></defs><path d="M256 331.6c-33.2 0-60-26.8-60-60s26.8-60 60-60 60 26.8 60 60-26.8 60-60 60z m0-97.2c-20.4 0-36.8 16.4-36.8 36.8S235.6 308 256 308s36.8-16.4 36.8-36.8-16.4-36.8-36.8-36.8zM507.2 220h304v24h-304zM507.2 268h304v24h-304zM207.2 408h232v24h-232zM207.2 452h232v24h-232zM207.2 500h232v24h-232zM207.2 544h232v24h-232zM799.2 593.2h-278.4c-12.8 0-23.2-10.4-23.2-23.2v-135.6c0-12.8 10.4-23.2 23.2-23.2h278.4c12.8 0 23.2 10.4 23.2 23.2v135.6c0 12.8-10.4 23.2-23.2 23.2z m-278.4-158.8v135.6h278.4v-135.6h-278.4z" p-id="9251"></path><path d="M935.6 684.4H76.8c-13.6 0-24.4-10.8-24.4-24.4V179.2c0-13.6 10.8-24.4 24.4-24.4h858.8c13.6 0 24.4 10.8 24.4 24.4V660c0 13.6-10.8 24.4-24.4 24.4zM76.8 178.4c-0.4 0-1.2 0.4-1.2 1.2V660c0 0.4 0.4 1.2 1.2 1.2h858.8c0.4 0 1.2-0.4 1.2-1.2V179.2c0-0.4-0.4-1.2-1.2-1.2H76.8z" p-id="9252"></path><path d="M706.4 919.2H301.2c-6.8 0-13.2-4-16-10-2.8-6.4-2-13.6 2.4-18.8l27.6-34c3.6-4 8.4-6.8 14-6.8h90v-70h-376c-24 0-43.2-19.6-43.2-43.2V138.8c0-18.8 15.2-34.4 34.4-34.4h955.6c18.8 0 34.4 15.2 34.4 34.4v594.8c0 25.2-20.4 46-46 46h-373.2v70h67.2c4.8 0 9.2 2 12.8 5.2l34 34c5.2 5.2 6.8 12.8 4 19.6-3.2 6.4-9.6 10.8-16.8 10.8z m-394-23.6h380.8l-23.2-23.2h-70.4c-10 0-18-8-18-18v-80.8c0-10 8-18 18-18h378.4c12.4 0 22.8-10 22.8-22.8V138.8c0-6-4.8-10.8-10.8-10.8H34.4c-6 0-10.8 4.8-10.8 10.8v597.6c0 10.8 8.8 19.6 19.6 19.6h381.2c10 0 18 8 18 18v80.8c0 10-8 18-18 18H331.2l-18.8 22.8z" p-id="9253"></path></svg>