<?xml version="1.0" standalone="no"?><!DOCTYPE svg PUBLIC "-//W3C//DTD SVG 1.1//EN" "http://www.w3.org/Graphics/SVG/1.1/DTD/svg11.dtd"><svg t="1542014386450" class="icon" style="" viewBox="0 0 1024 1024" version="1.1" xmlns="http://www.w3.org/2000/svg" p-id="8865" xmlns:xlink="http://www.w3.org/1999/xlink" width="48" height="48"><defs><style type="text/css"></style></defs><path d="M872.246952 117.848365l-720.493936 0c-40.945891 0-74.070902 34.489712-74.070902 77.041134l0 475.729608c0 42.604939 38.057152 78.960472 78.970203 78.960472l315.864999 0 0 78.970203L275.100323 828.549782l0 78.965338 473.805405 0 0-78.965338L551.487518 828.549782l0-78.970203 78.965338 0 236.899661 0c40.908185 0 78.965338-36.355533 78.965338-78.960472L946.317855 194.889499C946.317855 152.338077 913.160003 117.848365 872.246952 117.848365zM867.352517 670.619107l-214.793211-2.139491 0.100954-0.368542-24.625431 0.124064-12.50246-0.124064 0.034057 0.187312-458.915326 2.320721L156.6511 196.813703l710.700201 0L867.351301 670.619107z" p-id="8866"></path><path d="M511.999984 828.549782" p-id="8867"></path><path d="M451.950714 412.499685c-73.903051 0-133.807581 80.834807-133.807581 180.557707 0 3.318096 0.077844 6.637409 0.205557 9.92753l267.199183 0c0.141092-3.291337 0.212854-6.609434 0.212854-9.92753C585.760727 493.334493 525.845251 412.499685 451.950714 412.499685L451.950714 412.499685zM453.187702 393.926617c37.307905 0 67.557557-29.145242 67.557557-65.104258 0-35.941988-30.249653-65.08723-67.557557-65.08723-37.286011 0-67.529582 29.145242-67.529582 65.08723C385.65812 364.781375 415.901691 393.926617 453.187702 393.926617L453.187702 393.926617zM616.577181 475.806236c-6.467125 0-12.740857 0.977914-18.812681 2.734267 16.952942 32.372115 27.006968 71.797617 27.006968 114.449992 0 3.320529-0.063248 6.638625-0.205557 9.938477l81.168077 0c0.076628-2.194225 0.121631-4.395748 0.121631-6.607001C705.855619 529.771519 665.874262 475.806236 616.577181 475.806236L616.577181 475.806236zM662.467375 419.988512c0-23.995382-20.178598-43.438112-45.066752-43.438112-24.900317 0-45.069185 19.443946-45.069185 43.438112 0 23.984435 20.168868 43.442977 45.069185 43.442977C642.288777 463.431489 662.467375 443.972947 662.467375 419.988512L662.467375 419.988512zM662.467375 419.988512" p-id="8868"></path></svg>