<?xml version="1.0" standalone="no"?><!DOCTYPE svg PUBLIC "-//W3C//DTD SVG 1.1//EN" "http://www.w3.org/Graphics/SVG/1.1/DTD/svg11.dtd"><svg t="1542014397482" class="icon" style="" viewBox="0 0 1276 1024" version="1.1" xmlns="http://www.w3.org/2000/svg" p-id="9136" xmlns:xlink="http://www.w3.org/1999/xlink" width="59.8125" height="48"><defs><style type="text/css"></style></defs><path d="M1211.59028 0H72.701323C32.305137 0 0 24.607813 0 65.633959v738.391879c0 32.797293 32.305137 65.614273 64.62996 65.614273h456.543833l-11.299908 80.516764h-88.903107c-32.305137 0-56.538911 41.00646-56.538911 73.823439H905.567518c8.071363-24.607813-16.162412-73.823439-48.467549-73.823439h-88.804675l-13.248847-80.556137h456.543833c32.305137 0 64.610274-32.816979 64.610274-65.614272V65.633959C1276.180867 24.607813 1243.875731 0 1211.59028 0z" fill="#F35B3C" p-id="9137"></path><path d="M80.772685 73.843125h1122.726546v607.08459H80.772685z" fill="#FFFFFF" p-id="9138"></path><path d="M298.856967 574.26761h306.92833v24.607813H298.856967zM298.856967 525.051984h306.92833v24.607813H298.856967zM298.856967 475.816672h306.92833v24.607813H298.856967zM298.856967 434.790526h306.92833v24.627499H298.856967zM298.856967 385.594586h306.92833v24.607813H298.856967z" fill="#F8D3CD" p-id="9139"></path><path d="M985.414949 221.509689H678.48662v24.607813h306.928329v-24.607813zM985.414949 172.294063H678.48662v24.588127h306.928329V172.294063z" fill="#F8D3CD" p-id="9140"></path><path d="M678.48662 385.594586h306.928329v213.300523H678.48662z" fill="#FD8646" p-id="9141"></path><path d="M387.701015 287.143648a72.957244 72.957244 0 0 0 51.4008-21.654875 74.650261 74.650261 0 0 0 0-104.337127 71.913873 71.913873 0 0 0-102.8016 0 74.650261 74.650261 0 0 0 0 104.337127 72.996616 72.996616 0 0 0 51.4008 21.654875z" fill="#EA7C75" p-id="9142"></path></svg>