<?xml version="1.0" standalone="no"?><!DOCTYPE svg PUBLIC "-//W3C//DTD SVG 1.1//EN" "http://www.w3.org/Graphics/SVG/1.1/DTD/svg11.dtd"><svg t="1542014409312" class="icon" style="" viewBox="0 0 1177 1024" version="1.1" xmlns="http://www.w3.org/2000/svg" p-id="9361" xmlns:xlink="http://www.w3.org/1999/xlink" width="55.171875" height="48"><defs><style type="text/css"></style></defs><path d="M1126.246266 0H51.247972a51.247963 51.247963 0 0 0-51.247963 51.247963v767.86531a51.247963 51.247963 0 0 0 51.247963 51.247963h511.914587v102.390801H409.589497v51.247963h358.341525v-51.247963H614.344819v-102.390801h511.914587a51.247963 51.247963 0 0 0 51.247963-51.247963V51.247963a51.247963 51.247963 0 0 0-51.247963-51.247963z m0 819.04757H51.247972V665.487649h1074.998294v153.573062z m0-204.755322H51.247972V51.195401h1074.998294v563.044285z m-511.901447 102.443364h-51.247963v51.247962h51.247963v-51.247962zM340.089375 175.754232l-58.304413 72.483016h47.134985c12.194387 135.478589 126.043708 241.614434 264.689158 241.614434 146.779422 0 265.77982-119.000398 265.77982-265.77982h-24.152245a241.614434 241.614434 0 0 1-241.614434 241.614434c-125.281558 0-228.303104-95.360632-240.471211-217.449048h45.203332l-58.304413-72.483016z" p-id="9362"></path></svg>