<?xml version="1.0" standalone="no"?><!DOCTYPE svg PUBLIC "-//W3C//DTD SVG 1.1//EN" "http://www.w3.org/Graphics/SVG/1.1/DTD/svg11.dtd"><svg t="1542014412953" class="icon" style="" viewBox="0 0 1024 1024" version="1.1" xmlns="http://www.w3.org/2000/svg" p-id="9470" xmlns:xlink="http://www.w3.org/1999/xlink" width="48" height="48"><defs><style type="text/css"></style></defs><path d="M879 735.2H112.3c-26.6 0-48.2-21.6-48.2-48.2V146.6c0-26.6 21.6-48.2 48.2-48.2H879c26.6 0 48.2 21.6 48.2 48.2V687c0 26.6-21.6 48.2-48.2 48.2z m-10.6-561.3c0-5.3-4.3-9.6-9.6-9.6l-722.2-1c-5.3 0-9.6 4.3-9.6 9.6v487.7c0 5.3 4.3 9.6 9.6 9.6h722.2c5.3 0 9.6-4.3 9.6-9.6V173.9zM523.6 342.7h64.1v296.7h-64.1V342.7z m-150-90.9h66.1V640h-66.1V251.8z m0.4 169.4h65.1v204.2H374V421.2z m-137.5 90.5h64.1v113.7h-64.1V511.7z m123.3 262c0-5.3 4.3-9.6 9.6-9.6h250.5c5.3 0 9.6 4.3 9.6 9.6v74.9h164.7v64.8h-601v-64.8h166.6v-74.9z m0 0" fill="" p-id="9471"></path><path d="M739.2 311.5V384H688v-72.4c-30.7 10.8-51.2 39.9-51.2 72.4 0 32.6 20.5 61.6 51.2 72.4v173c0 2.8 1.1 5.5 3.1 7.4 2 2 4.7 3.1 7.4 3.1h30.1c2.8 0 5.5-1.1 7.4-3.1 2-2 3.1-4.7 3.1-7.4v-173c30.7-10.9 51.2-39.9 51.2-72.4 0.2-32.6-20.4-61.6-51.1-72.5z" fill="" p-id="9472"></path></svg>