<?xml version="1.0" standalone="no"?><!DOCTYPE svg PUBLIC "-//W3C//DTD SVG 1.1//EN" "http://www.w3.org/Graphics/SVG/1.1/DTD/svg11.dtd"><svg t="1542014368154" class="icon" style="" viewBox="0 0 1213 1024" version="1.1" xmlns="http://www.w3.org/2000/svg" p-id="8647" xmlns:xlink="http://www.w3.org/1999/xlink" width="56.859375" height="48"><defs><style type="text/css"></style></defs><path d="M176.185 644.522c0 48.432 39.626 88.06 88.059 88.06h264.18v110.074H374.32c-24.216 0-44.03 19.813-44.03 44.03s19.814 44.03 44.03 44.03h528.36c24.216 0 44.03-19.814 44.03-44.03s-19.814-44.03-44.03-44.03H748.575V732.582h264.181c48.433 0 88.06-39.628 88.06-88.06v-44.03H176.186v44.03z m836.571-572.393h-748.51c-48.434 0-88.061 39.627-88.061 88.06V556.46h924.632V160.189c0-48.433-39.627-88.06-88.06-88.06z" fill="#666666" p-id="8648"></path></svg>