<?xml version="1.0" standalone="no"?><!DOCTYPE svg PUBLIC "-//W3C//DTD SVG 1.1//EN" "http://www.w3.org/Graphics/SVG/1.1/DTD/svg11.dtd"><svg t="1542015084282" class="icon" style="" viewBox="0 0 1024 1024" version="1.1" xmlns="http://www.w3.org/2000/svg" p-id="9580" xmlns:xlink="http://www.w3.org/1999/xlink" width="48" height="48"><defs><style type="text/css"></style></defs><path d="M921.6 102.4c-15.753846-15.753846-39.384615-23.630769-63.015385-23.630769H165.415385C118.153846 78.769231 78.769231 118.153846 78.769231 165.415385V708.923077c0 47.261538 39.384615 86.646154 86.646154 86.646154h330.830769v102.4H354.461538c-15.753846 0-23.630769 7.876923-23.630769 23.630769 0 15.753846 7.876923 23.630769 23.630769 23.630769h315.076924c15.753846 0 23.630769-7.876923 23.630769-23.630769 0-15.753846-7.876923-23.630769-23.630769-23.630769H535.630769v-102.4H866.461538c47.261538 0 86.646154-39.384615 86.646154-86.646154V165.415385c-7.876923-23.630769-15.753846-47.261538-31.507692-63.015385zM897.969231 708.923077c0 23.630769-23.630769 39.384615-47.261539 39.384615H173.292308c-23.630769 0-47.261538-15.753846-47.261539-39.384615v-47.261539h771.938462V708.923077z" fill="#FFA134" p-id="9581"></path><path d="M582.892308 496.246154H173.292308c-7.876923 0-23.630769-7.876923-23.63077-23.630769 0-7.876923 7.876923-23.630769 23.63077-23.63077h409.6c7.876923 0 23.630769 7.876923 23.630769 23.63077 0 15.753846-15.753846 23.630769-23.630769 23.630769zM409.6 409.6H165.415385c-7.876923 0-15.753846-7.876923-15.753847-15.753846v-15.753846c0-7.876923 7.876923-15.753846 15.753847-15.753846h244.184615c7.876923 0 15.753846 7.876923 15.753846 15.753846V393.846154c0 7.876923-7.876923 15.753846-15.753846 15.753846zM582.892308 315.076923H173.292308c-7.876923 0-23.630769-7.876923-23.63077-15.753846v-7.876923c0-7.876923 7.876923-23.630769 23.63077-23.630769h409.6c7.876923 0 23.630769 7.876923 23.630769 23.630769v7.876923c0 7.876923-15.753846 15.753846-23.630769 15.753846z" fill="#FFFFFF" p-id="9582"></path></svg>