<?xml version="1.0" encoding="utf-8"?>
<!-- Generator: Adobe Illustrator 22.0.1, SVG Export Plug-In . SVG Version: 6.00 Build 0)  -->
<svg version="1.1" id="软件定义" xmlns="http://www.w3.org/2000/svg" xmlns:xlink="http://www.w3.org/1999/xlink" x="0px"
	 y="0px" viewBox="0 0 48 48" style="enable-background:new 0 0 48 48;" xml:space="preserve">
<style type="text/css">
	.st0{opacity:0.1;fill:#FFFFFF;enable-background:new    ;}
	.st1{fill:#FFFFFF;}
</style>
<rect class="st0" width="40" height="40"/>
<rect id="Rectangle_666_copy_3" x="8" y="8" class="st0" width="40" height="40"/>
<path class="st1" d="M23,41C12,41,3,32,3,21h1.2c0,10.4,8.4,18.8,18.8,18.8S41.8,31.4,41.8,21S33.4,2.2,23,2.2c-5,0-9.7,2-13.3,5.5
	L8.9,6.9C16.7-1,29.3-1,37.1,6.9c7.8,7.8,7.8,20.5,0,28.3C33.4,38.9,28.3,41,23,41z M8,21h1.2v1.2H8V21z M23,6c8.3,0,15,6.7,15,15
	s-6.7,15-15,15c-1.5,0-3.1-0.2-4.5-0.7l0.4-1.2c7.2,2.3,15-1.7,17.3-8.9c2.3-7.2-1.7-15-8.9-17.3C22.4,6.3,17,7.6,13.4,11.3
	l-0.9-0.9C15.2,7.6,19,6,23,6z M13,21h1.2v1.2H13V21z M14.2,12.2c4.9-4.9,12.8-4.9,17.7,0s4.9,12.8,0,17.7c-1.4,1.4-3,2.4-4.9,3
	l-0.4-1.2c5.9-2,9.1-8.3,7.1-14.2s-8.3-9.1-14.2-7.1c-1.7,0.6-3.2,1.5-4.4,2.7L14.2,12.2z M15.5,21h1.2v1.2h-1.2
	C15.5,22.2,15.5,21,15.5,21z M29.3,16.9l-1,0.7c-1.9-2.9-5.8-3.7-8.7-1.8c-0.4,0.2-0.7,0.5-1,0.8l-0.9-0.9c2.9-2.9,7.7-2.9,10.6,0
	C28.7,16.1,29,16.5,29.3,16.9z M15.9,13.9c3.9-3.9,10.2-3.9,14.1,0c2.7,2.7,3.6,6.8,2.4,10.4l-1.2-0.4c1.6-4.6-0.8-9.6-5.3-11.2
	c-3.2-1.1-6.7-0.3-9.1,2.1L15.9,13.9z M11.8,22.2h-1.2V21h1.2V22.2z M40.5,21c0,9.7-7.8,17.5-17.5,17.5c-6.1,0-11.8-3.2-15-8.4
	l1.1-0.6c4.7,7.7,14.6,10.1,22.3,5.5c7.7-4.7,10.1-14.6,5.5-22.3C32.3,4.9,22.3,2.5,14.6,7.1c-1.1,0.7-2.1,1.5-3.1,2.4l-0.9-0.9
	c6.8-6.8,17.9-6.8,24.7,0C38.7,11.9,40.5,16.4,40.5,21z M5.5,21h1.2v1.2H5.5V21z"/>
</svg>
