<?xml version="1.0" encoding="utf-8"?>
<!-- Generator: Adobe Illustrator 22.0.1, SVG Export Plug-In . SVG Version: 6.00 Build 0)  -->
<svg version="1.1" id="贴合业务" xmlns="http://www.w3.org/2000/svg" xmlns:xlink="http://www.w3.org/1999/xlink" x="0px"
	 y="0px" viewBox="0 0 48 48" style="enable-background:new 0 0 48 48;" xml:space="preserve">
<style type="text/css">
	.st0{opacity:0.1;fill:#FFFFFF;enable-background:new    ;}
	.st1{fill:#FFFFFF;}
</style>
<rect id="Rectangle_666_copy_2" class="st0" width="40" height="40"/>
<rect id="Rectangle_666_copy_3" x="8" y="8" class="st0" width="40" height="40"/>
<path class="st1" d="M44.8,39.4l-2.5,2.5c-0.2,0.2-0.6,0.2-0.9,0l0,0c-0.2-0.2-0.2-0.6,0-0.9l1.4-1.4h-24v-1.2h24.1L41.5,37
	c-0.2-0.2-0.2-0.6,0-0.9c0.2-0.2,0.6-0.2,0.9,0l0,0l2.5,2.5C45,38.7,45,39.1,44.8,39.4C44.8,39.3,44.8,39.3,44.8,39.4z M37.5,35.8
	h1.2V37h-1.2V35.8z M37.5,33.3h1.2v1.2h-1.2V33.3z M37.5,30.8h1.2V32h-1.2V30.8L37.5,30.8z M37.5,28.3h1.2v1.2h-1.2V28.3L37.5,28.3z
	 M37.5,25.8h1.2V27h-1.2V25.8L37.5,25.8z M37.5,23.3h1.2v1.2h-1.2V23.3z M37.5,20.8h1.2V22h-1.2V20.8z M37.5,18.3h1.2v1.2h-1.2V18.3
	z M37.5,15.8h1.2V17h-1.2V15.8z M37.5,13.3h1.2v1.2h-1.2V13.3z M37.5,9.5H35V8.3h3.7V12h-1.2V9.5L37.5,9.5z M32.5,8.3h1.2v1.2h-1.2
	V8.3z M30,35.8h1.2V37H30V35.8z M30,33.3h1.2v1.2H30V33.3z M30,30.8h1.2V32H30V30.8L30,30.8z M30,28.3h1.2v1.2H30V28.3L30,28.3z
	 M30,25.8h1.2V27H30V25.8L30,25.8z M30,23.3h1.2v1.2H30V23.3z M30,20.8h1.2V22H30V20.8z M30,17h-2.5v-1.2h3.7v3.7H30V17L30,17z
	 M30,8.3h1.2v1.2H30V8.3z M27.5,8.3h1.2v1.2h-1.2V8.3z M25,15.8h1.2V17H25V15.8z M25,8.3h1.2v1.2H25V8.3z M22.5,35.7h1.2V37h-1.2
	V35.7z M22.5,33.2h1.2v1.2h-1.2V33.2z M22.5,30.7h1.2V32h-1.2V30.7L22.5,30.7z M22.5,28.2h1.2v1.2h-1.2V28.2L22.5,28.2z M22.5,24.5
	H20v-1.2h3.7V27h-1.2V24.5L22.5,24.5z M22.5,15.8h1.2V17h-1.2V15.8z M22.5,8.3h1.2v1.2h-1.2V8.3z M20,15.8h1.2V17H20V15.8z M20,8.3
	h1.2v1.2H20V8.3z M17.5,23.2h1.2v1.2h-1.2V23.2z M17.5,15.8h1.2V17h-1.2V15.8z M17.5,8.3h1.2v1.2h-1.2V8.3z M15,23.2h1.2v1.2H15
	V23.2z M15,15.8h1.2V17H15V15.8z M15,8.3h1.2v1.2H15V8.3z M12.5,23.2h1.2v1.2h-1.2V23.2z M12.5,15.8h1.2V17h-1.2V15.8z M12.5,8.3
	h1.2v1.2h-1.2V8.3z M10,23.2h1.2v1.2H10V23.2z M10,15.8h1.2V17H10V15.8z M10,8.3h1.2v1.2H10V8.3z M10.7,5.8c-0.2,0-0.3-0.1-0.4-0.2
	L8.8,4.1v24.2H7.6V4.2L6.1,5.6c-0.2,0.2-0.6,0.2-0.9,0S5,5,5.2,4.8l0,0l2.5-2.5C8,2,8.4,2,8.6,2.3l0,0l2.5,2.5
	c0.2,0.2,0.2,0.6,0,0.9C11,5.8,10.8,5.8,10.7,5.8L10.7,5.8z M12.5,29.5c2.8,0,5,2.2,5,5s-2.2,5-5,5s-5-2.2-5-5l0,0
	C7.6,31.7,9.8,29.6,12.5,29.5L12.5,29.5z M12.5,38.2c2.1,0,3.7-1.7,3.8-3.7s-1.7-3.7-3.7-3.8c-2.1,0-3.7,1.7-3.8,3.7l0,0
	C8.8,36.5,10.4,38.2,12.5,38.2C12.5,38.3,12.5,38.3,12.5,38.2L12.5,38.2z"/>
</svg>
