<?xml version="1.0" encoding="utf-8"?>
<!-- Generator: Adobe Illustrator 22.0.1, SVG Export Plug-In . SVG Version: 6.00 Build 0)  -->
<svg version="1.1" id="智能主动" xmlns="http://www.w3.org/2000/svg" xmlns:xlink="http://www.w3.org/1999/xlink" x="0px"
	 y="0px" viewBox="0 0 48 48" style="enable-background:new 0 0 48 48;" xml:space="preserve">
<style type="text/css">
	.st0{opacity:0.1;fill:#FFFFFF;enable-background:new    ;}
	.st1{fill:#FFFFFF;}
</style>
<rect id="Rectangle_666_copy" class="st0" width="40" height="40"/>
<rect id="Rectangle_666_copy_3" x="8" y="8" class="st0" width="40" height="40"/>
<path class="st1" d="M42.7,38.4l-2.5,2.5c-0.2,0.2-0.6,0.2-0.9,0c-0.2-0.2-0.2-0.6,0-0.9l0,0l1.4-1.4h-8.5v-1.2h8.5L39.3,36
	c-0.2-0.2-0.3-0.6,0-0.9l0,0c0.2-0.2,0.6-0.2,0.9,0l0,0l2.5,2.5C43,37.7,43,38.1,42.7,38.4C42.7,38.3,42.7,38.3,42.7,38.4z
	 M22.9,38.5H3v-1.2h20c9,0,16.2-7.3,16.2-16.2c0-8.3-6.3-15.3-14.6-16.1l1.3,1.4c0.2,0.2,0.2,0.6,0,0.9c-0.2,0.2-0.6,0.2-0.9,0
	l-2.5-2.5c-0.2-0.2-0.2-0.6,0-0.9l0,0L25,1.3c0.2-0.2,0.6-0.2,0.9,0l0,0c0.2,0.2,0.3,0.6,0,0.9l0,0l-1.5,1.5
	c9.6,0.7,16.8,9.1,16.1,18.7C39.8,31.5,32.1,38.6,22.9,38.5L22.9,38.5z M28.3,11.7l2.2,4.4l-2.2,4.4h-5.1L21,16.1l2.2-4.4
	C23.2,11.7,28.3,11.7,28.3,11.7z M23.9,19.2h3.6l1.6-3.1L27.5,13h-3.6l-1.6,3.1L23.9,19.2z M18.6,15.4c-0.7,0-1.2-0.6-1.2-1.2
	c0-0.7,0.6-1.2,1.2-1.2c0.7,0,1.2,0.6,1.2,1.2l0,0C19.8,14.9,19.3,15.4,18.6,15.4L18.6,15.4z M31,19.8c0.7,0,1.2,0.6,1.2,1.2
	c0,0.7-0.6,1.2-1.2,1.2c-0.7,0-1.2-0.6-1.2-1.2S30.4,19.8,31,19.8L31,19.8z M23.2,30.4L21,26.1l2.2-4.4h5.1l2.2,4.4l-2.2,4.4h-5.1
	V30.4z M27.5,22.9h-3.6L22.3,26l1.6,3.1h3.6l1.6-3.1L27.5,22.9z M19.8,27.9c0,0.7-0.6,1.2-1.2,1.2c-0.7,0-1.2-0.6-1.2-1.2
	c0-0.7,0.6-1.2,1.2-1.2l0,0C19.3,26.7,19.8,27.2,19.8,27.9L19.8,27.9z M12.3,21.1l2.2-4.4h5.1l2.2,4.4l-2.2,4.4h-5.1L12.3,21.1z
	 M18.8,24.2l1.6-3.1L18.8,18h-3.6l-1.6,3.1l1.6,3.1H18.8z M6.7,21.1c0,5.7,2.9,11,7.8,13.9l-0.6,1C5.6,31,3,20.3,8,12
	c2.6-4.3,6.9-7.2,11.8-8.1L20,5.1C12.3,6.5,6.7,13.2,6.7,21.1L6.7,21.1z"/>
</svg>
