<?xml version="1.0" standalone="no"?><!DOCTYPE svg PUBLIC "-//W3C//DTD SVG 1.1//EN" "http://www.w3.org/Graphics/SVG/1.1/DTD/svg11.dtd"><svg t="1545112591139" class="icon" style="" viewBox="0 0 1024 1024" version="1.1" xmlns="http://www.w3.org/2000/svg" p-id="10597" xmlns:xlink="http://www.w3.org/1999/xlink" width="48" height="48"><defs><style type="text/css"></style></defs><path d="M712.893256 255.576695c0-12.549752-11.454139-23.007879-25.099504-23.007879H281.819236c-13.645365 0-25.099504 10.458127-25.099504 23.007879 0 12.549752 11.454139 23.007879 25.099504 23.007878h406.074117c13.645365 0.996012 24.999903-9.462115 24.999903-23.007878zM434.607486 464.93843c13.645365 0 25.099504-10.458127 25.099504-23.007878 0-12.549752-11.454139-23.007879-25.099504-23.007879H282.914849c-13.645365 0-25.099504 10.458127-25.099504 23.007879 0 12.549752 11.454139 23.007879 25.099504 23.007878H434.607486z" p-id="10598"></path><path d="M915.880514 744.419414c-28.485945 0-50.199008 20.916253-50.199008 46.015758V883.661901c0 26.195117-22.808676 46.015757-50.199008 46.015757H156.321716c-27.390332 0-50.199008-20.916253-50.199008-46.015757V139.342087c0-26.195117 22.808676-46.015757 50.199008-46.015757h659.260383c27.390332 0 50.199008 20.916253 50.199008 46.015757v93.226729c0 26.195117 22.808676 46.015757 50.199008 46.015757s50.199008-20.916253 50.199008-46.015757V93.226729c0-51.294621-45.617352-93.226729-101.493629-93.226729H103.83188C47.955604 0 2.338251 41.832507 2.338251 93.226729v837.546542c0 51.294621 45.617352 93.127128 101.493629 93.127128h760.754012c55.876277 0 101.493629-41.832507 101.49363-93.127128V791.530785c0-26.095516-21.613462-47.11137-50.199008-47.111371z" p-id="10599"></path><path d="M552.535314 541.232954l222.210291 131.174788c23.007879 14.342574 42.230911 4.681257 41.832506-21.51386l-1.394417-93.127128 156.8719-3.585643c27.390332-0.398405 49.900204-21.613462 49.501799-46.712966-0.398405-26.195117-23.505885-45.716954-50.896216-45.41815l-156.8719 3.585644-1.394417-93.127128c-0.398405-25.099504-19.920241-34.262815-42.529715-20.418247l-218.126641 136.852057c-22.609474 14.940181-22.211069 37.94806 0.79681 52.290633zM299.050244 746.311837l29.282755-13.844567V587.348312c0-3.984048 1.693221-7.370489 5.179263-10.358525 3.386441-2.988036 8.2669-4.382453 14.442174-4.382453 4.482054 0.199202 8.864507 1.494018 13.246961 3.984048 4.282852 2.49003 6.474078 6.075674 6.474078 10.75693v242.030931c0 4.282852-2.290828 8.167299-6.772882 11.354538-4.482054 3.28684-9.561716 4.681257-15.139383 4.282852-5.179263-0.199202-9.362513-1.693221-12.549752-4.581656-3.187239-2.888435-4.780858-6.57368-4.780858-11.055734v-59.063515c-18.924229 9.262912-32.967999 16.135395-42.13131 20.517849-9.262912 4.382453-16.035794 3.884447-20.418247-1.792822-4.382453-5.577668-6.57368-10.75693-6.57368-15.537788 0-0.597607 0.398405-3.685245 1.095613-9.163311 0.79681-5.478066 1.095613-10.258924 1.095614-14.143372l-0.298804-128.784359c-0.199202-4.183251 1.494018-7.569692 4.98006-10.159323 3.585643-2.689233 8.067698-4.083649 13.645365-4.282852 4.482054 0 8.864507 1.294816 13.047758 3.884447 4.183251 2.589631 6.274876 5.976072 6.274876 10.358525v125.099115h-0.099601z m238.246085-112.549363c3.884447 0 7.370489 1.394417 10.458127 4.282852 3.087637 2.888435 4.780858 6.872483 5.179263 12.151347 0.298804 5.179263-0.996012 9.362513-3.984049 12.549752-2.988036 3.187239-6.872483 4.681257-11.55374 4.681257h-15.73699c-0.896411 6.872483-1.792822 15.039782-2.888435 24.501897-1.095613 9.462115-3.28684 22.011867-6.772882 37.649256-3.386441 15.637389-7.370489 27.589534-11.952145 35.856434l-8.665305 16.5338c13.346562 10.856531 25.199105 18.12742 35.756833 22.011867 10.557728 3.884447 16.932205 7.071686 19.322634 9.561715 2.390429 2.589631 3.685245 6.274876 3.884447 11.254937 0.199202 4.880459-2.191227 10.159323-7.071685 15.836592-4.98006 5.577668-13.24696 6.075674-24.800701 1.294815-11.55374-4.681257-29.183153-15.438187-52.788639-32.171189-11.354537 9.06371-24.900302 17.629413-40.537691 25.59751-15.637389 7.968096-26.593522 11.653341-32.868398 11.055734-6.274876-0.398405-10.856531-2.390429-14.04377-5.876472-3.087637-3.585643-4.780858-7.171287-5.179263-10.956132-0.298804-3.784846 0.597607-7.071686 2.689233-10.059722 1.693221-2.589631 3.784846-4.382453 6.075673-5.577668 2.390429-1.195214 8.665305-3.28684 19.023831-6.374477 10.258924-3.087637 23.007879-10.458127 37.948059-22.31067-8.764906-12.051746-15.637389-22.908277-20.617449-32.669196-4.98006-9.760918-10.557728-23.605486-16.733003-41.533703-4.681257 3.984048-9.661317 5.976072-14.84058 6.175275-5.179263 0.199202-9.362513-1.394417-12.748954-4.681257-3.28684-3.386441-4.880459-7.370489-4.681257-12.151347 0-2.788834 0.697208-5.577668 2.091626-8.466102 1.394417-2.888435 3.585643-6.772882 6.573679-11.852544 2.988036-4.98006 8.167299-14.442175 15.63739-28.187141 7.370489-13.744966 13.24696-28.286743 17.529812-43.426126 4.282852-15.139383 7.868495-25.199105 10.657329-30.179165 2.788834-4.880459 7.47009-7.569692 14.04377-7.868496 6.57368-0.298804 11.952145 1.294816 16.234997 4.880459 4.282852 3.585643 6.673281 7.370489 7.071685 11.354538 0.398405 4.083649-0.498006 9.163311-2.888435 15.537788l-6.075673 16.234997-5.77687 15.039782h93.027526v0.298803zM422.655341 680.674643c4.98006 0.996012 7.968096 2.788834 9.163311 5.478066 1.195214 2.689233 2.390429 7.270888 3.685245 13.744966 1.294816 6.474078 4.581655 15.537788 9.96012 27.19113 5.378465 11.653341 11.254936 21.115456 17.729015 28.386343 3.187239-7.071686 5.77687-13.24696 7.768894-18.426223 1.892423-5.179263 4.083649-13.446163 6.474078-24.8007 2.390429-11.354537 3.884447-21.812664 4.482055-31.473981l0.996012-13.246961h-53.087443c-2.689233 4.382453-4.98006 8.864507-7.171287 13.14736z" p-id="10600"></path></svg>