<?xml version="1.0" standalone="no"?><!DOCTYPE svg PUBLIC "-//W3C//DTD SVG 1.1//EN" "http://www.w3.org/Graphics/SVG/1.1/DTD/svg11.dtd"><svg t="1545112598705" class="icon" style="" viewBox="0 0 1095 1024" version="1.1" xmlns="http://www.w3.org/2000/svg" p-id="10708" xmlns:xlink="http://www.w3.org/1999/xlink" width="51.328125" height="48"><defs><style type="text/css"></style></defs><path d="M1079.51 603.755l0.524 1.19-435.319 383.548h-0.714a153.028 153.028 0 0 1-193.203 0.524h-1.19L21.003 610.447c-1.072-0.953-2.239-1.834-3.239-2.858l-2.476-2.214 0.19-0.62A62.369 62.369 0 0 1 45.318 503.69l0.714-2.453h14.694c0.428 0 0.81-0.119 1.19-0.119 0.453 0 0.834 0.12 1.239 0.12h122.594V104.4C185.749 46.747 231.948 0 289.006 0h516.096c57.01 0 103.234 46.747 103.234 104.4v396.836h122.641c0.405 0 0.81-0.119 1.215-0.119 0.429 0 0.81 0.12 1.19 0.12h1.477l0.072 0.142a62.202 62.202 0 0 1 59.225 62.393c0 15.264-5.644 29.1-14.646 39.983zM681.27 438.486c22.813 0 41.293-18.694 41.293-41.77s-18.48-41.769-41.293-41.769h-82.587v-4.239l90.564-91.588a42.389 42.389 0 0 0 0-59.464 41.222 41.222 0 0 0-58.82 0l-84.063 85.016-83.754-84.682a41.222 41.222 0 0 0-58.797 0 42.389 42.389 0 0 0 0 59.463l91.636 92.66v2.858h-82.61c-22.79 0-41.294 18.67-41.294 41.746 0 23.075 18.504 41.77 41.294 41.77h82.61v41.769h-82.61c-22.79 0-41.294 18.67-41.294 41.746s18.504 41.77 41.294 41.77h82.61v52.2c0 28.815 23.1 52.2 51.605 52.2 28.505 0 51.605-23.338 51.605-52.2v-52.2h82.587c22.814 0 41.293-18.694 41.293-41.77s-18.48-41.746-41.293-41.746h-82.563v-41.77h82.587z" p-id="10709"></path></svg>