<?xml version="1.0" standalone="no"?><!DOCTYPE svg PUBLIC "-//W3C//DTD SVG 1.1//EN" "http://www.w3.org/Graphics/SVG/1.1/DTD/svg11.dtd"><svg t="1545112609220" class="icon" style="" viewBox="0 0 1024 1024" version="1.1" xmlns="http://www.w3.org/2000/svg" p-id="10817" xmlns:xlink="http://www.w3.org/1999/xlink" width="48" height="48"><defs><style type="text/css"></style></defs><path d="M73.142857 201.142857a36.571429 36.571429 0 1 1-73.142857 0V73.142857a73.142857 73.142857 0 0 1 73.142857-73.142857h877.714286a73.142857 73.142857 0 0 1 73.142857 73.142857v877.714286a73.142857 73.142857 0 0 1-73.142857 73.142857H73.142857a73.142857 73.142857 0 0 1-73.142857-73.142857v-128a36.571429 36.571429 0 1 1 73.142857 0V201.142857z m36.571429-128a36.571429 36.571429 0 0 0-36.571429 36.571429v804.571428a36.571429 36.571429 0 0 0 36.571429 36.571429h804.571428a36.571429 36.571429 0 0 0 36.571429-36.571429V109.714286a36.571429 36.571429 0 0 0-36.571429-36.571429H109.714286z m472.283428 327.314286H676.571429a36.571429 36.571429 0 1 1 0 73.142857h-128v73.142857h128a36.571429 36.571429 0 1 1 0 73.142857h-128v146.285715a36.571429 36.571429 0 1 1-73.142858 0v-146.285715h-128a36.571429 36.571429 0 1 1 0-73.142857h128v-73.142857h-128a36.571429 36.571429 0 1 1 0-73.142857h100.297143L329.142857 281.837714a36.571429 36.571429 0 0 1 51.712-51.712l134.016 133.997715 133.997714-133.997715a36.571429 36.571429 0 0 1 51.730286 51.712L581.997714 400.457143zM73.142857 588.269714l44.141714-44.16a36.571429 36.571429 0 1 1 51.730286 51.730286l-103.442286 103.442286a37.138286 37.138286 0 0 1-1.627428 1.517714A36.571429 36.571429 0 0 1 0 676.571429V347.428571a36.571429 36.571429 0 1 1 73.142857 0v240.859429z" p-id="10818"></path></svg>