<?xml version="1.0" standalone="no"?><!DOCTYPE svg PUBLIC "-//W3C//DTD SVG 1.1//EN" "http://www.w3.org/Graphics/SVG/1.1/DTD/svg11.dtd"><svg t="1542013636119" class="icon" style="" viewBox="0 0 1024 1024" version="1.1" xmlns="http://www.w3.org/2000/svg" p-id="3565" xmlns:xlink="http://www.w3.org/1999/xlink" width="48" height="48"><defs><style type="text/css"></style></defs><path d="M901.784 1016.879c0.712 2.21 0.999 4.492 0.999 6.774h-56.764L511.643 687.102l-334.375 336.551h-56.799c0.072-2.532 0.357-5.027 1.141-7.452-6.882-8.522-11.232-19.253-11.232-31.127v-713.89c0-27.241 21.786-49.275 48.67-49.275h705.867c26.884 0 48.706 22.035 48.706 49.275v713.89c0 12.194-4.564 23.211-11.837 31.805z m-36.869-721.093c0-13.62-10.91-24.603-24.317-24.603H183.401c-13.443 0-24.353 11.018-24.353 24.603v678.876L494.92 636.614c9.234-9.27 24.21-9.27 33.444 0l336.62 338.726V295.786h-0.07z m0-148.397H159.048c-26.883 0-48.67-18.791-48.67-42.002V42.384c0-23.211 21.786-42.037 48.67-42.037h705.867c26.884 0 48.706 18.826 48.706 42.037v63.003c0 23.21-21.821 42.002-48.706 42.002z m0-84.004c0-11.588-10.91-21-24.317-21H183.401c-13.443 0-24.353 9.412-24.353 21v21c0 11.588 10.91 21.001 24.353 21.001h657.197c13.407 0 24.317-9.413 24.317-21.001v-21z m0 0" fill="#63B7FF" p-id="3566"></path></svg>