<?xml version="1.0" standalone="no"?><!DOCTYPE svg PUBLIC "-//W3C//DTD SVG 1.1//EN" "http://www.w3.org/Graphics/SVG/1.1/DTD/svg11.dtd"><svg t="1542851265462" class="icon" style="" viewBox="0 0 1024 1024" version="1.1" xmlns="http://www.w3.org/2000/svg" p-id="2767" xmlns:xlink="http://www.w3.org/1999/xlink" width="48" height="48"><defs><style type="text/css"></style></defs><path d="M721.156112 527.963577 306.593282 527.963577c-7.748475 0-14.018272 6.269797-14.018272 14.018272s6.269797 14.019295 14.018272 14.019295l414.563854 0c7.748475 0 14.018272-6.27082 14.018272-14.019295S728.90561 527.963577 721.156112 527.963577z" p-id="2768"></path><path d="M525.991154 713.079668 306.593282 713.079668c-7.748475 0-14.018272 6.269797-14.018272 14.018272s6.269797 14.018272 14.018272 14.018272l219.397872 0c7.748475 0 14.018272-6.269797 14.018272-14.018272S533.739629 713.079668 525.991154 713.079668z" p-id="2769"></path><path d="M798.368658 62.389956 225.630319 62.389956c-51.145867 0-92.76373 41.617863-92.76373 92.76373l0 713.663976c0 51.15917 41.617863 92.791359 92.76373 92.791359l392.71422 0c0.453325 0 0.909719-0.024559 1.360997-0.068562 0.157589-0.01535 0.310062-0.042979 0.463558-0.063445 0.293689-0.037862 0.587378-0.076748 0.876973-0.134053 0.169869-0.032746 0.335644-0.076748 0.50142-0.115634 0.274246-0.063445 0.547469-0.128937 0.817622-0.209778 0.157589-0.047072 0.312108-0.102331 0.467651-0.154519 0.274246-0.092098 0.545422-0.188288 0.813528-0.296759 0.144286-0.059352 0.285502-0.12382 0.427742-0.188288 0.26606-0.118704 0.528026-0.242524 0.787946-0.379647 0.144286-0.074701 0.283456-0.155543 0.425695-0.236384 0.237407-0.1361 0.473791-0.277316 0.705058-0.428765 0.163729-0.106424 0.323365-0.221034 0.484024-0.334621 0.188288-0.134053 0.373507-0.270153 0.555655-0.414439 0.205685-0.163729 0.405229-0.334621 0.601704-0.509606 0.077771-0.069585 0.161682-0.12996 0.237407-0.201591l258.770602-240.041028c0.046049-0.041956 0.083911-0.089028 0.127913-0.132006 0.224104-0.212848 0.437975-0.434905 0.647753-0.661056 0.115634-0.125867 0.232291-0.248663 0.343831-0.3776 0.173962-0.202615 0.335644-0.413416 0.499373-0.627287 0.12382-0.162706 0.249687-0.323365 0.36532-0.490164 0.12996-0.187265 0.249687-0.379647 0.369414-0.573051 0.125867-0.200568 0.25378-0.401136 0.367367-0.606821 0.096191-0.172939 0.182149-0.353041 0.272199-0.531096 0.115634-0.232291 0.234337-0.463558 0.337691-0.701988 0.071631-0.165776 0.134053-0.336668 0.197498-0.505513 0.102331-0.258896 0.201591-0.517793 0.285502-0.780783 0.052189-0.157589 0.092098-0.319272 0.1361-0.477884 0.081864-0.285502 0.159636-0.572028 0.222057-0.861624 0.029676-0.144286 0.054235-0.290619 0.079818-0.436952 0.058328-0.316202 0.109494-0.63138 0.144286-0.950651 0.016373-0.128937 0.023536-0.260943 0.033769-0.390903 0.027629-0.340761 0.048095-0.681522 0.052189-1.02433 0-0.051165 0.008186-0.101307 0.008186-0.152473L891.132388 155.153686C891.133412 104.007819 849.515548 62.389956 798.368658 62.389956zM632.36281 915.466098l0-129.171941c0-35.68985 29.021987-64.726164 64.700581-64.726164l144.32813 0L632.36281 915.466098zM863.095845 693.53145 697.062368 693.53145c-51.14689 0-92.737124 41.617863-92.737124 92.762707l0 147.278321L225.630319 933.572478c-35.704177 0-64.727187-29.05064-64.727187-64.753793l0-713.663976c0-35.68985 29.02301-64.726164 64.727187-64.726164l572.738339 0c35.704177 0 64.72821 29.036313 64.72821 64.726164L863.096868 693.53145z" p-id="2770"></path><path d="M708.069049 166.517501 529.248338 345.351516l-87.6165-87.657432c-21.850657-21.903869-57.389058-21.89159-79.292927-0.014326-21.903869 21.890566-21.903869 57.402361 0 79.30623l127.262452 127.318734c10.514471 10.513448 24.778336 16.428158 39.646975 16.428158s29.132504-5.913687 39.646975-16.428158l218.46564-218.494293c21.904892-21.903869 21.904892-57.403385 0-79.292927C765.458107 144.613632 729.972918 144.613632 708.069049 166.517501z" p-id="2771"></path></svg>