<?xml version="1.0" standalone="no"?><!DOCTYPE svg PUBLIC "-//W3C//DTD SVG 1.1//EN" "http://www.w3.org/Graphics/SVG/1.1/DTD/svg11.dtd"><svg t="1542013650916" class="icon" style="" viewBox="0 0 1024 1024" version="1.1" xmlns="http://www.w3.org/2000/svg" p-id="3854" xmlns:xlink="http://www.w3.org/1999/xlink" width="48" height="48"><defs><style type="text/css"></style></defs><path d="M42.998 19.598h837.232c36.884 0 82.382-2.672 113.038 3.828l5.748 7.658h1.916l1.914 7.658h1.916V73.2c0 30.768 1.542 67.034-3.83 91.888l-7.664 5.744v1.914l-7.664 1.914v1.914H43v-1.914l-7.664-1.914-5.748-7.658h-1.916l-1.916-7.658h-1.916V122.972c0-30.768-1.54-67.034 3.832-91.888l7.664-5.744v-1.914c3.212-2.218 4.388 0.04 7.662-3.828z m45.98 195.264H876.4c46.16 0 74.342-2.308 101.54 17.23l1.916 3.83 7.664 5.742v3.83l5.748 3.83v3.828h1.916v3.83h1.916l3.832 11.486h1.914v7.658h1.916V938.488h-1.916v7.658h-1.914v5.742h-1.916l-1.916 7.658h-1.916v3.828l-3.832 1.914v3.828l-9.58 7.658c-2.552 3.19-5.11 6.38-7.662 9.572h-3.832l-1.916 3.828h-3.832v1.914l-7.664 1.914v1.914h-5.746v1.916h-7.664v1.914H203.934c-49.524 0-120.106 7.328-149.438-13.4l-5.748-7.658-11.496-9.572v-3.828l-3.832-1.914v-3.828h-1.916l-1.916-7.658h-1.916v-5.742h-1.916v-7.658h-1.916v-160.804V419.7v-103.374c0-15.062-2.824-35.938 1.916-47.86h1.916v-3.828h1.916v-3.83h1.916v-3.828h1.916l1.916-7.658 5.748-3.83v-3.83h1.916l5.748-7.658h3.832l5.748-7.658h3.832v-1.914l7.664-1.914v-1.916h5.748v-1.914l13.412-1.914c-0.006-0.636-0.006-1.274-0.006-1.912z m5.748 70.83c-1.152 4.306-1.614 4.752-3.832 7.658h-1.916l-5.748 17.23v557.074c0 14.548-2.672 34.478 1.916 45.944h1.916v3.83h1.916v3.828h1.916c3.698 6.416 5.464 11.272 13.412 13.4 9.36 9.226 37.594 5.742 55.56 5.742H912.802c4.776-1.434 9.894-4.582 15.326-5.742l7.664-9.572h1.916v-3.828c1.278-0.638 2.554-1.278 3.832-1.914l1.916-13.4h1.916v-156.976-283.324-156.976h-1.916v-7.658h-1.916v-3.828h-1.916v-3.83h-1.916c-2.22-2.904-2.668-3.356-3.832-7.658-4.322-1.152-4.736-1.622-7.662-3.828v-1.916l-9.58-1.914v-1.914H111.972v1.914l-9.58 1.914v1.916c-2.932 2.21-3.348 2.664-7.666 3.828z m63.222 202.922h40.234v1.914h1.916l38.318 218.236h1.916l7.664-44.032h1.916v-9.57c5.092-16.138 8.096-36.054 13.412-51.688v-7.658h1.916v-7.656h1.916v-7.658h1.916v-7.658h1.916v-7.656h1.916l3.832-24.886h1.916l11.496-51.688h38.318c1.034 6.488 4.02 13.792 5.748 19.144v9.572h1.916v7.658c3.086 9.02 6.504 21.606 9.58 30.628l1.916 15.314h1.916l1.916 17.23c6.806 19.892 10.658 44.636 17.242 65.086v9.572h1.916v9.572h1.916v9.572h1.916v9.57h1.916c2.178 6.93-0.6 12.62 3.832 17.23v-1.916c4.792-5.752 1.334-16.58 3.832-24.884h1.916v-11.486h1.916v-11.486h1.916l1.916-22.972c9.28-30.856 9.88-68.868 19.16-99.544v-11.486h1.916v-11.486h1.916c2.252-7.556-0.65-18.038 3.832-22.972v-1.914h38.318l-49.812 262.266h-51.728c-1.89-11.498-6.132-24.282-9.58-34.458l-1.916-17.228h-1.916v-7.658h-1.916v-7.656h-1.916v-7.658h-1.916v-7.656h-1.916v-7.658h-1.916v-7.658h-1.916v-7.656h-1.916v-7.658h-1.916v-7.656h-1.916v-9.572h-1.916v-7.658h-1.916v-7.656h-1.916v-9.572h-1.916v-9.572h-1.916v-11.484c-2.652-8.652-5.23-17.458-5.748-28.716h-3.832c-0.01 10.958-3.222 20.408-5.748 28.716v11.484h-1.916v9.572h-1.916v9.572h-1.916v7.656h-1.916v7.658h-1.916l-7.664 40.202c-3.084 9.018-6.516 21.604-9.58 30.628v7.658h-1.916v9.572c-4.168 12.814-8.598 28.042-11.496 42.116h-49.812L157.948 488.614z m325.698 0h155.184v34.458h-114.952v72.744h95.792v36.374h-95.792v82.316h116.868c3.236 8.688 2.012 24.606 1.916 36.374h-159.016V488.614z m193.502 0h74.718l42.148 1.914v1.914h7.664v1.916l11.494 1.914v1.914l7.664 1.916v1.914h3.832l5.746 7.658h3.832l1.916 3.83h1.916v3.828c1.278 0.638 2.554 1.278 3.832 1.914v3.83h1.916l1.916 7.656h1.916v7.658c9.326 29.47-10.844 66.262-32.57 70.83v3.828c6.922 0.286 16.64 2.944 21.074 5.744l1.916 3.828h3.832l9.58 11.486 3.83 1.914v3.828l3.832 1.916v5.742h1.916v3.828h1.916v7.658c7.298 22.928-2.204 48.34-11.494 61.26-1.278 0.636-2.554 1.276-3.832 1.914l-7.664 9.57-7.664 1.916-1.916 3.828h-3.83v1.914h-3.832v1.914h-5.748v1.914h-3.832v1.914h-5.748v1.916h-9.578v1.914l-42.15 1.914h-78.548V488.614z m42.148 32.542v76.574c15.78 0.222 37.27 1.758 49.812-1.914h11.494c5.776-1.934 10.442-6.112 17.244-7.656l3.832-5.744h1.916v-3.828c1.276-0.638 2.552-1.278 3.83-1.914v-5.744h1.916c3.226-9.516-0.982-21.076-1.916-30.628-4.554-2.934-3.042-5.558-5.746-7.658h-3.832l-1.916-3.828-7.664-1.914v-1.914h-7.664c-15.926-5.17-40.062-3.826-61.306-3.832z m0 111.034v88.06c36.826 0.858 92.666 0.33 99.626-26.802h1.916v-5.742c5.208-12.818 1.58-18.608 0-32.542h-1.916l-1.916-5.744-15.326-11.486h-3.832v-1.914c-16.97-6.778-55.152-3.828-78.552-3.83z" p-id="3855"></path></svg>