<?xml version="1.0" standalone="no"?><!DOCTYPE svg PUBLIC "-//W3C//DTD SVG 1.1//EN" "http://www.w3.org/Graphics/SVG/1.1/DTD/svg11.dtd"><svg t="1542013658188" class="icon" style="" viewBox="0 0 1024 1024" version="1.1" xmlns="http://www.w3.org/2000/svg" p-id="3969" xmlns:xlink="http://www.w3.org/1999/xlink" width="48" height="48"><defs><style type="text/css"></style></defs><path d="M975.238095 1024 585.142857 1024C558.201905 1024 536.380952 1002.154667 536.380952 975.238095L536.380952 585.142857C536.380952 558.201905 558.201905 536.380952 585.142857 536.380952L975.238095 536.380952C1002.154667 536.380952 1024 558.201905 1024 585.142857L1024 975.238095C1024 1002.154667 1002.154667 1024 975.238095 1024ZM926.47619 682.666667C926.47619 655.725714 904.630857 633.904762 877.714286 633.904762L682.666667 633.904762C655.725714 633.904762 633.904762 655.725714 633.904762 682.666667L633.904762 877.714286C633.904762 904.630857 655.725714 926.47619 682.666667 926.47619L877.714286 926.47619C904.630857 926.47619 926.47619 904.630857 926.47619 877.714286L926.47619 682.666667ZM975.238095 487.619048 585.142857 487.619048C558.201905 487.619048 536.380952 465.773714 536.380952 438.857143L536.380952 48.761905C536.380952 21.820952 558.201905 0 585.142857 0L828.952381 0 828.952381 6.753524C836.144762 2.56 844.409905 0 853.333333 0 880.249905 0 902.095238 21.820952 902.095238 48.761905 902.095238 75.678476 880.249905 97.52381 853.333333 97.52381 844.409905 97.52381 836.144762 94.939429 828.952381 90.745905L828.952381 97.52381 682.666667 97.52381C655.725714 97.52381 633.904762 119.344762 633.904762 146.285714L633.904762 341.333333C633.904762 368.249905 655.725714 390.095238 682.666667 390.095238L877.714286 390.095238C904.630857 390.095238 926.47619 368.249905 926.47619 341.333333L926.47619 195.047619 933.229714 195.047619C929.060571 187.855238 926.47619 179.590095 926.47619 170.666667 926.47619 143.725714 948.297143 121.904762 975.238095 121.904762 1002.154667 121.904762 1024 143.725714 1024 170.666667 1024 179.590095 1021.415619 187.855238 1017.222095 195.047619L1024 195.047619 1024 438.857143C1024 465.773714 1002.154667 487.619048 975.238095 487.619048ZM438.857143 1024 48.761905 1024C21.820952 1024 0 1002.154667 0 975.238095L0 585.142857C0 558.201905 21.820952 536.380952 48.761905 536.380952L438.857143 536.380952C465.773714 536.380952 487.619048 558.201905 487.619048 585.142857L487.619048 975.238095C487.619048 1002.154667 465.773714 1024 438.857143 1024ZM390.095238 682.666667C390.095238 655.725714 368.249905 633.904762 341.333333 633.904762L146.285714 633.904762C119.344762 633.904762 97.52381 655.725714 97.52381 682.666667L97.52381 877.714286C97.52381 904.630857 119.344762 926.47619 146.285714 926.47619L341.333333 926.47619C368.249905 926.47619 390.095238 904.630857 390.095238 877.714286L390.095238 682.666667ZM438.857143 487.619048 48.761905 487.619048C21.820952 487.619048 0 465.773714 0 438.857143L0 48.761905C0 21.820952 21.820952 0 48.761905 0L438.857143 0C465.773714 0 487.619048 21.820952 487.619048 48.761905L487.619048 438.857143C487.619048 465.773714 465.773714 487.619048 438.857143 487.619048ZM390.095238 146.285714C390.095238 119.344762 368.249905 97.52381 341.333333 97.52381L146.285714 97.52381C119.344762 97.52381 97.52381 119.344762 97.52381 146.285714L97.52381 341.333333C97.52381 368.249905 119.344762 390.095238 146.285714 390.095238L341.333333 390.095238C368.249905 390.095238 390.095238 368.249905 390.095238 341.333333L390.095238 146.285714Z" p-id="3970"></path></svg>