<?xml version="1.0" standalone="no"?><!DOCTYPE svg PUBLIC "-//W3C//DTD SVG 1.1//EN" "http://www.w3.org/Graphics/SVG/1.1/DTD/svg11.dtd"><svg t="1552375683721" class="icon" style="" viewBox="0 0 1267 1024" version="1.1" xmlns="http://www.w3.org/2000/svg" p-id="3537" xmlns:xlink="http://www.w3.org/1999/xlink" width="158.375" height="128"><defs><style type="text/css"></style></defs><path d="M985.61764299 271.27965893s-12.03601579-240.72034107-234.70233069-240.72033862c-168.50423874 0-186.55826249 120.36017051-186.55826249 120.36017054s-30.09004202-60.18008404-120.36017055-60.18008651c-162.48622837 42.12606033-120.36017051 180.54025458-120.36017055 180.54025459s-240.72034107-6.01800793-240.72033861 216.64830696c0 210.6302966 180.54025458 204.61228866 180.54025458 204.61228869h180.54025458v-60.18008407h-138.41419677s-162.48622837-6.01800793-162.48622836-120.36017051c0-222.66631488 240.72034107-180.54025458 240.72034108-180.54025458s-48.14406823-174.52224666 60.18008405-180.54025457c120.36017051 0 120.36017051 120.36017051 120.36017055 120.36016808s48.14406823-204.61228866 180.54025458-180.54025459c198.59428078 0 180.54025458 240.72034107 180.54025459 240.72034108s180.54025458 6.01800793 180.54025455 180.54025458c0 78.23411024-72.21610235 108.32415227-120.36017054 114.34216266V692.54025458c36.10804992 0 180.54025458-24.07203411 180.54025703-204.61228869s-180.54025458-216.64830699-180.54025703-216.64830696z m-180.5402546 421.26059565s-54.16207612-12.03601579-120.3601705-60.18008407-60.18008404-120.36017051-60.18008404-120.36017051v-180.54025458h-60.18008404v240.72033862c0 114.34216266 108.32415227 150.45021257 180.54025458 180.54025703s60.18008404 120.36017051 60.180084 120.36016808v120.36017054h60.18008655v-180.54025457c0-96.28813646-60.18008404-120.36017051-60.18008655-120.36017054z m-240.72033858 120.36017054v120.36017054h60.18008404v-60.18008651s-12.03601579-90.27012851 60.18008404-120.36016808h-108.32415225c-6.01800793 18.0540262-12.03601579 36.10804992-12.03601583 60.18008405z m240.72033858-300.90042512s6.01800793 72.21610235-60.180084 120.36017051h108.32415228c6.01800793-18.0540262 12.03601579-36.10804992 12.03601827-60.18008647v-180.54025455h-60.18008655v120.36017051z" fill="#848484" p-id="3538"></path></svg>